<?xml version="1.0" encoding="utf-8"?>
<svg width="512px" height="512px" viewBox="0 0 512 512" version="1.1" xmlns:xlink="http://www.w3.org/1999/xlink" xmlns="http://www.w3.org/2000/svg">
  <desc>Created with Lunacy</desc>
  <defs>
    <path d="M0 0L512 0L512 512L0 512L0 0Z" id="path_1" />
    <clipPath id="mask_1">
      <use xlink:href="#path_1" />
    </clipPath>
  </defs>
  <g id="github">
    <path d="M0 0L512 0L512 512L0 512L0 0Z" id="Background" fill="none" fill-rule="evenodd" stroke="none" />
    <g clip-path="url(#mask_1)">
      <path d="M255.968 0C114.624 0 0 115.072 0 257.024C0 370.56 73.344 466.88 175.104 500.896C187.904 503.264 192.576 495.328 192.576 488.512C192.576 482.4 192.352 466.24 192.224 444.8C121.024 460.32 105.984 410.336 105.984 410.336C94.368 380.64 77.568 372.736 77.568 372.736C54.304 356.8 79.296 357.12 79.296 357.12C104.992 358.944 118.496 383.616 118.496 383.616C141.344 422.88 178.432 411.552 193.024 404.96C195.328 388.352 201.952 377.024 209.28 370.592C152.448 364.096 92.672 342.048 92.672 243.584C92.672 215.52 102.656 192.576 119.04 174.592C116.384 168.096 107.616 141.952 121.536 106.592C121.536 106.592 143.04 99.68 191.936 132.928C212.352 127.232 234.24 124.384 256.032 124.288C277.76 124.416 299.68 127.232 320.128 132.96C368.992 99.712 390.464 106.624 390.464 106.624C404.416 142.016 395.648 168.128 393.024 174.624C409.44 192.608 419.328 215.552 419.328 243.616C419.328 342.336 359.488 364.064 302.464 370.432C311.648 378.368 319.84 394.048 319.84 418.016C319.84 452.384 319.52 480.096 319.52 488.512C319.52 495.392 324.128 503.392 337.12 500.864C438.72 466.816 512 370.528 512 257.024C512 115.072 397.376 0 255.968 0L255.968 0Z" transform="translate(0 5.3289795)" id="Shape" fill="#6F6BE3" fill-rule="evenodd" stroke="none" />
    </g>
  </g>
</svg>