<?xml version="1.0" encoding="utf-8"?>
<svg width="174px" height="174px" viewBox="0 0 174 174" version="1.1" xmlns:xlink="http://www.w3.org/1999/xlink" xmlns="http://www.w3.org/2000/svg">
  <defs>
    <path d="M0 0L174 0L174 174L0 174L0 0Z" id="path_1" />
    <clipPath id="mask_1">
      <use xlink:href="#path_1" />
    </clipPath>
  </defs>
  <g id="logo-small">
    <path d="M0 0L174 0L174 174L0 174L0 0Z" id="Background" fill="#FFFFFF" fill-opacity="0" fill-rule="evenodd" stroke="none" />
    <g id="logo" transform="translate(2 4)">
      <path d="M0 0L170 0L170 170L0 170L0 0L0 0Z" id="Rectangle" fill="none" fill-rule="evenodd" stroke="none" />
      <g id="Group" transform="translate(25 25)">
        <path d="M0 0L120 0L120 120L0 120L0 0L0 0L0 0Z" id="Rectangle#1" fill="none" fill-rule="evenodd" stroke="#6F6BE3" stroke-width="4" />
        <g id="H" fill="#6F6BE3" transform="translate(15 15)">
          <path d="M24.6989 71.1818L24.6989 18.8182L31.0398 18.8182L31.0398 42.1364L58.9602 42.1364L58.9602 18.8182L65.3011 18.8182L65.3011 71.1818L58.9602 71.1818L58.9602 47.7614L31.0398 47.7614L31.0398 71.1818L24.6989 71.1818Z" />
        </g>
      </g>
    </g>
  </g>
</svg>