<?xml version="1.0" encoding="utf-8"?>
<svg width="454px" height="174px" viewBox="0 0 454 174" version="1.1" xmlns:xlink="http://www.w3.org/1999/xlink" xmlns="http://www.w3.org/2000/svg">
  <desc>Created with Lunacy</desc>
  <g id="logo" transform="translate(2 2)">
    <path d="M0 0L450 0L450 170L0 170L0 0Z" id="Rectangle" fill="none" fill-rule="evenodd" stroke="none" />
    <path d="M0 0L400 0L400 120L0 120L0 0L0 0Z" transform="translate(25 25)" id="Rectangle" fill="none" fill-rule="evenodd" stroke="#000000" stroke-width="4" />
    <g id="HEFFORD" transform="translate(74.2324 58.703094)">
      <path d="M208.284 41.4844C209.912 37.9219 210.727 33.7852 210.727 29.0742L210.727 22.9571C210.657 18.3868 209.801 14.3672 208.161 10.8985C206.52 7.4297 204.194 4.7461 201.182 2.8477C198.17 0.949234 194.695 0 190.758 0C186.82 0 183.34 0.966801 180.317 2.9004C177.293 4.834 174.955 7.59963 173.303 11.1973C171.651 14.795 170.825 18.9258 170.825 23.5899L170.825 28.8633C170.825 36.1289 172.664 41.9004 176.344 46.1778C180.024 50.4552 184.852 52.5939 190.829 52.5939C194.789 52.5939 198.281 51.6329 201.305 49.711C204.328 47.7891 206.654 45.0469 208.284 41.4844L208.284 41.4844ZM37.9336 51.8909L33.5742 51.8909L33.5742 27.3516L4.3242 27.3516L4.3242 51.8909L0 51.8909L0 0.703201L4.3242 0.703201L4.3242 23.6953L33.5742 23.6953L33.5742 0.703201L37.9336 0.703201L37.9336 51.8909L37.9336 51.8909ZM79.2066 27.3516L55.2656 27.3516L55.2656 48.2344L82.7926 48.2344L82.7926 51.8909L50.9416 51.8909L50.9416 0.703201L82.6176 0.703201L82.6176 4.3594L55.2656 4.3594L55.2656 23.6953L79.2066 23.6953L79.2066 27.3516L79.2066 27.3516ZM96.2226 27.9492L120.094 27.9492L120.094 24.293L96.2226 24.293L96.2226 4.3594L123.61 4.3594L123.61 0.703201L91.8986 0.703201L91.8986 51.8909L96.2226 51.8909L96.2226 27.9492L96.2226 27.9492ZM160.594 27.9492L136.723 27.9492L136.723 51.8909L132.399 51.8909L132.399 0.703201L164.11 0.703201L164.11 4.3594L136.723 4.3594L136.723 24.293L160.594 24.293L160.594 27.9492L160.594 27.9492ZM240.75 30.5508L225.879 30.5508L225.879 51.8909L221.52 51.8909L221.52 0.703201L238.149 0.703201C243.609 0.703201 247.875 2.02583 250.946 4.6711C254.016 7.31644 255.551 11.0153 255.551 15.7676C255.551 19.0448 254.59 21.9359 252.668 24.4408C250.746 26.9457 248.168 28.678 244.934 29.6378L257.731 51.4329L257.731 51.8909L253.125 51.8909L240.75 30.5508L240.75 30.5508ZM267.329 0.703201L267.329 51.8909L281.321 51.8909C285.68 51.8909 289.541 50.9299 292.905 49.0078C296.268 47.0859 298.875 44.3555 300.727 40.8164C302.578 37.2773 303.504 33.2227 303.504 28.6524L303.504 23.9414C303.504 19.3945 302.572 15.3399 300.709 11.7774C298.845 8.21487 296.25 5.47853 292.922 3.5684C289.594 1.65827 285.832 0.703201 281.637 0.703201L267.329 0.703201L267.329 0.703201ZM202.219 9.0352C205.008 12.5274 206.403 17.3555 206.403 23.5196L206.403 28.9336C206.403 35.1914 205.031 40.0723 202.289 43.5762C199.547 47.0801 195.727 48.8321 190.829 48.8321C186 48.8321 182.18 47.0567 179.368 43.5059C176.555 39.9551 175.149 35.1445 175.149 29.0742L175.149 23.7305C175.149 17.4492 176.561 12.5567 179.385 9.0528C182.209 5.54887 186 3.7969 190.758 3.7969C195.61 3.7969 199.43 5.543 202.219 9.0352L202.219 9.0352ZM225.879 26.8946L239.133 26.8946C242.765 26.8946 245.683 25.8617 247.887 23.7959C250.09 21.7301 251.192 19.054 251.192 15.7676C251.192 12.1527 250.043 9.34767 247.747 7.3524C245.449 5.35707 242.227 4.3594 238.079 4.3594L225.879 4.3594L225.879 26.8946L225.879 26.8946ZM271.653 48.2344L271.653 4.3594L281.707 4.3594C286.957 4.38287 291.187 6.16557 294.399 9.7075C297.609 13.2495 299.215 17.9641 299.215 23.8513L299.215 28.3552C299.215 34.4537 297.586 39.2916 294.329 42.8687C291.071 46.4458 286.746 48.2344 281.356 48.2344L271.653 48.2344L271.653 48.2344Z" id="Shape" fill="#000000" fill-rule="evenodd" stroke="none" />
    </g>
  </g>
</svg>